<svg width="347" height="214" viewBox="0 0 347 214" fill="none" xmlns="http://www.w3.org/2000/svg">
<ellipse cx="170" cy="210" rx="170" ry="4" fill="#F2F2F8"/>
<path d="M265.671 206.764C261.228 203.016 258.53 197.096 259.237 191.332C259.945 185.569 264.328 180.271 270.013 179.047C275.699 177.823 282.18 181.211 283.907 186.756C284.857 176.066 285.952 164.928 291.645 155.824C296.8 147.581 305.728 141.683 315.404 140.628C325.081 139.573 335.268 143.558 341.303 151.182C347.337 158.807 348.815 169.892 344.589 178.645C341.475 185.094 335.739 189.893 329.729 193.797C310.308 206.307 287.015 211.394 264.136 208.123L265.671 206.764Z" fill="#F2F2F2"/>
<path d="M331.736 143.779C323.752 150.271 316.428 157.532 309.869 165.457C299.604 177.817 291.297 191.675 285.239 206.548C284.795 207.633 286.56 208.105 286.999 207.032C296.912 182.861 312.737 161.556 333.027 145.067C333.938 144.326 332.64 143.044 331.736 143.779Z" fill="white"/>
<path d="M111.705 205.746C117.807 200.598 121.513 192.467 120.541 184.551C119.569 176.635 113.549 169.358 105.74 167.676C97.9308 165.995 89.0291 170.649 86.6572 178.264C85.3518 163.582 83.8477 148.284 76.0285 135.78C68.9484 124.458 56.6856 116.357 43.3954 114.908C30.1053 113.459 16.1125 118.933 7.82388 129.405C-0.464699 139.877 -2.49412 155.102 3.31098 167.125C7.5874 175.982 15.4661 182.574 23.7209 187.936C50.0569 205.045 82.7266 212.18 113.812 207.613" fill="#F2F2F2"/>
<path d="M20.9682 119.235C31.9342 128.152 41.9944 138.126 51.0032 149.011C60.0134 159.884 67.9459 171.605 74.6894 184.008C78.4586 190.965 81.8446 198.123 84.8323 205.449C85.4414 206.939 83.0175 207.588 82.4151 206.114C77.1232 193.199 70.5762 180.832 62.8678 169.191C55.1969 157.593 46.4172 146.765 36.6519 136.859C31.1286 131.259 25.3011 125.966 19.1957 121.005C17.9442 119.988 19.7271 118.226 20.9682 119.235L20.9682 119.235Z" fill="white"/>
<path d="M249.081 206.661H103.5V57.5386C103.5 25.8116 129.354 0 161.134 0H191.447C223.226 0 249.081 25.8116 249.081 57.5386V206.661Z" fill="#F2F2F2"/>
<path d="M218.768 206.661H103.5V57.5385C103.468 45.3814 107.324 33.5317 114.507 23.7144C114.772 23.3542 115.036 22.9985 115.308 22.6468C118.782 18.0979 122.916 14.0918 127.574 10.7606C127.837 10.5695 128.102 10.3817 128.37 10.1938C132.267 7.50103 136.484 5.29973 140.922 3.64001C141.186 3.54027 141.454 3.44033 141.723 3.34447C145.737 1.9142 149.899 0.934473 154.13 0.423376C154.393 0.387599 154.662 0.359603 154.931 0.331606C159.055 -0.108582 163.214 -0.108582 167.338 0.331606C167.606 0.359603 167.876 0.387595 168.141 0.423759C172.372 0.934889 176.532 1.9145 180.545 3.34449C180.814 3.44035 181.082 3.54028 181.347 3.64022C185.731 5.279 189.897 7.44746 193.754 10.0972C194.021 10.2809 194.29 10.4688 194.554 10.6566C197.165 12.5172 199.617 14.5901 201.886 16.854C203.706 18.6699 205.401 20.6056 206.961 22.648C207.233 22.9986 207.497 23.3542 207.761 23.7139C214.944 33.5312 218.8 45.3812 218.768 57.5385V206.661Z" fill="#DBDBDB"/>
<path d="M209.397 139.964C212.922 139.964 215.779 137.112 215.779 133.593C215.779 130.075 212.922 127.222 209.397 127.222C205.873 127.222 203.016 130.075 203.016 133.593C203.016 137.112 205.873 139.964 209.397 139.964Z" fill="#556EE6"/>
<path d="M187.06 163.457H135.21C134.527 163.461 133.87 163.194 133.384 162.715C132.898 162.236 132.622 161.584 132.617 160.903V45.3597C132.622 44.678 132.898 44.0262 133.384 43.5473C133.87 43.0684 134.527 42.8015 135.21 42.8052H187.06C187.743 42.8015 188.4 43.0684 188.886 43.5473C189.372 44.0262 189.648 44.678 189.653 45.3597V160.903C189.648 161.584 189.372 162.236 188.886 162.715C188.4 163.194 187.743 163.461 187.06 163.457Z" fill="white"/>
<path d="M189.653 80.1914H132.617V80.9878H189.653V80.1914Z" fill="#DBDBDB"/>
<path d="M189.852 125.629H132.816V126.426H189.852V125.629Z" fill="#DBDBDB"/>
<path d="M151.365 42.8057H150.566V163.856H151.365V42.8057Z" fill="#DBDBDB"/>
<path d="M171.306 42.8057H170.508V163.856H171.306V42.8057Z" fill="#DBDBDB"/>
</svg>
